<mxfile host="app.diagrams.net" modified="2021-10-29T01:57:59.392Z" agent="5.0 (Windows NT 10.0; Win64; x64) AppleWebKit/537.36 (KHTML, like Gecko) Chrome/95.0.4638.54 Safari/537.36" etag="nQLAXeEdFmnMxBeB2kXp" version="15.6.2" type="github">
  <diagram id="Vb3b1w7tOggZKiGW4i6m" name="Page-1">
    <mxGraphModel dx="1422" dy="794" grid="1" gridSize="10" guides="1" tooltips="1" connect="1" arrows="1" fold="1" page="1" pageScale="1" pageWidth="827" pageHeight="1169" math="0" shadow="0">
      <root>
        <mxCell id="0" />
        <mxCell id="1" parent="0" />
        <mxCell id="Z9xd57F3fZL-k_UrVPD2-34" style="edgeStyle=orthogonalEdgeStyle;rounded=0;orthogonalLoop=1;jettySize=auto;html=1;entryX=0.5;entryY=0;entryDx=0;entryDy=0;" edge="1" parent="1" source="Z9xd57F3fZL-k_UrVPD2-22" target="Z9xd57F3fZL-k_UrVPD2-23">
          <mxGeometry relative="1" as="geometry" />
        </mxCell>
        <mxCell id="Z9xd57F3fZL-k_UrVPD2-22" value="" style="ellipse;html=1;shape=endState;fillColor=#000000;strokeColor=#ff0000;" vertex="1" parent="1">
          <mxGeometry x="370" y="100" width="30" height="30" as="geometry" />
        </mxCell>
        <mxCell id="Z9xd57F3fZL-k_UrVPD2-35" style="edgeStyle=orthogonalEdgeStyle;rounded=0;orthogonalLoop=1;jettySize=auto;html=1;" edge="1" parent="1" source="Z9xd57F3fZL-k_UrVPD2-23" target="Z9xd57F3fZL-k_UrVPD2-25">
          <mxGeometry relative="1" as="geometry" />
        </mxCell>
        <mxCell id="Z9xd57F3fZL-k_UrVPD2-23" value="Hiển thị form đăng nhập" style="rounded=1;whiteSpace=wrap;html=1;arcSize=40;fontColor=#000000;fillColor=#ffffc0;strokeColor=#ff0000;" vertex="1" parent="1">
          <mxGeometry x="325" y="160" width="120" height="40" as="geometry" />
        </mxCell>
        <mxCell id="Z9xd57F3fZL-k_UrVPD2-37" style="edgeStyle=orthogonalEdgeStyle;rounded=0;orthogonalLoop=1;jettySize=auto;html=1;entryX=0.5;entryY=0;entryDx=0;entryDy=0;" edge="1" parent="1" source="Z9xd57F3fZL-k_UrVPD2-25" target="Z9xd57F3fZL-k_UrVPD2-26">
          <mxGeometry relative="1" as="geometry" />
        </mxCell>
        <mxCell id="Z9xd57F3fZL-k_UrVPD2-25" value="Nhập tài khoản mật khẩu" style="rounded=1;whiteSpace=wrap;html=1;arcSize=40;fontColor=#000000;fillColor=#ffffc0;strokeColor=#ff0000;" vertex="1" parent="1">
          <mxGeometry x="325" y="240" width="120" height="40" as="geometry" />
        </mxCell>
        <mxCell id="Z9xd57F3fZL-k_UrVPD2-38" style="edgeStyle=orthogonalEdgeStyle;rounded=0;orthogonalLoop=1;jettySize=auto;html=1;entryX=0;entryY=0.5;entryDx=0;entryDy=0;" edge="1" parent="1" source="Z9xd57F3fZL-k_UrVPD2-26" target="Z9xd57F3fZL-k_UrVPD2-31">
          <mxGeometry relative="1" as="geometry" />
        </mxCell>
        <mxCell id="Z9xd57F3fZL-k_UrVPD2-39" style="edgeStyle=orthogonalEdgeStyle;rounded=0;orthogonalLoop=1;jettySize=auto;html=1;entryX=0.5;entryY=0;entryDx=0;entryDy=0;" edge="1" parent="1" source="Z9xd57F3fZL-k_UrVPD2-26" target="Z9xd57F3fZL-k_UrVPD2-32">
          <mxGeometry relative="1" as="geometry" />
        </mxCell>
        <mxCell id="Z9xd57F3fZL-k_UrVPD2-26" value="Đăng nhập" style="rhombus;whiteSpace=wrap;html=1;fillColor=#ffffc0;strokeColor=#ff0000;" vertex="1" parent="1">
          <mxGeometry x="345" y="330" width="80" height="40" as="geometry" />
        </mxCell>
        <mxCell id="Z9xd57F3fZL-k_UrVPD2-45" style="edgeStyle=orthogonalEdgeStyle;rounded=0;orthogonalLoop=1;jettySize=auto;html=1;entryX=1;entryY=0.5;entryDx=0;entryDy=0;" edge="1" parent="1" source="Z9xd57F3fZL-k_UrVPD2-31" target="Z9xd57F3fZL-k_UrVPD2-25">
          <mxGeometry relative="1" as="geometry">
            <mxPoint x="450" y="260" as="targetPoint" />
            <Array as="points">
              <mxPoint x="580" y="260" />
            </Array>
          </mxGeometry>
        </mxCell>
        <mxCell id="Z9xd57F3fZL-k_UrVPD2-31" value="Báo tài khoản hoặc mật khẩu không chính xác" style="rounded=1;whiteSpace=wrap;html=1;arcSize=40;fontColor=#000000;fillColor=#ffffc0;strokeColor=#ff0000;" vertex="1" parent="1">
          <mxGeometry x="520" y="330" width="120" height="40" as="geometry" />
        </mxCell>
        <mxCell id="Z9xd57F3fZL-k_UrVPD2-40" style="edgeStyle=orthogonalEdgeStyle;rounded=0;orthogonalLoop=1;jettySize=auto;html=1;" edge="1" parent="1" source="Z9xd57F3fZL-k_UrVPD2-32" target="Z9xd57F3fZL-k_UrVPD2-33">
          <mxGeometry relative="1" as="geometry" />
        </mxCell>
        <mxCell id="Z9xd57F3fZL-k_UrVPD2-32" value="Hiện lên Tran chủ" style="rounded=1;whiteSpace=wrap;html=1;arcSize=40;fontColor=#000000;fillColor=#ffffc0;strokeColor=#ff0000;" vertex="1" parent="1">
          <mxGeometry x="325" y="440" width="120" height="40" as="geometry" />
        </mxCell>
        <mxCell id="Z9xd57F3fZL-k_UrVPD2-33" value="" style="ellipse;html=1;shape=endState;fillColor=#000000;strokeColor=#ff0000;" vertex="1" parent="1">
          <mxGeometry x="550" y="445" width="30" height="30" as="geometry" />
        </mxCell>
        <mxCell id="Z9xd57F3fZL-k_UrVPD2-46" value="Đúng" style="text;strokeColor=none;fillColor=none;align=left;verticalAlign=top;spacingLeft=4;spacingRight=4;overflow=hidden;rotatable=0;points=[[0,0.5],[1,0.5]];portConstraint=eastwest;" vertex="1" parent="1">
          <mxGeometry x="390" y="380" width="100" height="26" as="geometry" />
        </mxCell>
        <mxCell id="Z9xd57F3fZL-k_UrVPD2-47" value="Sai" style="text;strokeColor=none;fillColor=none;align=left;verticalAlign=top;spacingLeft=4;spacingRight=4;overflow=hidden;rotatable=0;points=[[0,0.5],[1,0.5]];portConstraint=eastwest;" vertex="1" parent="1">
          <mxGeometry x="425" y="320" width="100" height="26" as="geometry" />
        </mxCell>
      </root>
    </mxGraphModel>
  </diagram>
</mxfile>
